<svg width="19" height="20" viewBox="0 0 19 20" fill="none" xmlns="http://www.w3.org/2000/svg">
<path d="M9.5 11.8899C9.18506 11.8899 8.88301 11.7646 8.66031 11.5417C8.43761 11.3187 8.3125 11.0163 8.3125 10.7009V1.18899C8.3125 0.873652 8.43761 0.571227 8.66031 0.348248C8.88301 0.125268 9.18506 0 9.5 0C9.81494 0 10.117 0.125268 10.3397 0.348248C10.5624 0.571227 10.6875 0.873652 10.6875 1.18899V10.7009C10.6875 11.0163 10.5624 11.3187 10.3397 11.5417C10.117 11.7646 9.81494 11.8899 9.5 11.8899Z" fill="white"/>
<path d="M9.50095 13.0787C9.34467 13.0796 9.18974 13.0496 9.04506 12.9905C8.90038 12.9313 8.76879 12.8441 8.65783 12.7339L5.09533 9.16695C4.87172 8.94306 4.74609 8.63939 4.74609 8.32276C4.74609 8.00613 4.87172 7.70247 5.09533 7.47858C5.31894 7.25469 5.62222 7.12891 5.93845 7.12891C6.25469 7.12891 6.55797 7.25469 6.78158 7.47858L9.50095 10.2133L12.2203 7.47858C12.331 7.36772 12.4625 7.27978 12.6072 7.21978C12.7518 7.15979 12.9069 7.12891 13.0635 7.12891C13.22 7.12891 13.3751 7.15979 13.5197 7.21978C13.6644 7.27978 13.7959 7.36772 13.9066 7.47858C14.0173 7.58944 14.1051 7.72105 14.165 7.86589C14.225 8.01074 14.2558 8.16598 14.2558 8.32276C14.2558 8.47954 14.225 8.63479 14.165 8.77963C14.1051 8.92448 14.0173 9.05609 13.9066 9.16695L10.3441 12.7339C10.2331 12.8441 10.1015 12.9313 9.95684 12.9905C9.81216 13.0496 9.65723 13.0796 9.50095 13.0787Z" fill="white"/>
<path d="M12.4688 19.0241H6.53125C4.80002 19.021 3.14059 18.331 1.91643 17.1053C0.692259 15.8796 0.00313914 14.2181 0 12.4847L0 11.8902C0 11.5748 0.125111 11.2724 0.347811 11.0494C0.57051 10.8264 0.872555 10.7012 1.1875 10.7012C1.50244 10.7012 1.80449 10.8264 2.02719 11.0494C2.24989 11.2724 2.375 11.5748 2.375 11.8902V12.4847C2.375 13.5884 2.81289 14.6468 3.59234 15.4273C4.37179 16.2077 5.42894 16.6461 6.53125 16.6461H12.4688C13.5711 16.6461 14.6282 16.2077 15.4077 15.4273C16.1871 14.6468 16.625 13.5884 16.625 12.4847V11.8902C16.625 11.5748 16.7501 11.2724 16.9728 11.0494C17.1955 10.8264 17.4976 10.7012 17.8125 10.7012C18.1274 10.7012 18.4295 10.8264 18.6522 11.0494C18.8749 11.2724 19 11.5748 19 11.8902V12.4847C18.9969 14.2181 18.3077 15.8796 17.0836 17.1053C15.8594 18.331 14.2 19.021 12.4688 19.0241Z" fill="white"/>
</svg>
