<svg width="156" height="158" viewBox="0 0 156 158" fill="none" xmlns="http://www.w3.org/2000/svg">
<path d="M140.903 117.479C143.679 117.479 145.935 115.207 145.935 112.414V57.606C152.125 51.6114 156 43.2109 156 33.9036C156 15.7501 141.326 0.980108 123.29 0.980108C111.741 0.980108 101.594 7.05323 95.7714 16.1756H95.6129C87.5789 16.1756 79.6103 18.6575 72.9677 23.1959C66.3252 18.6575 58.3566 16.1756 50.3226 16.1756H40.2581V0L30.1935 3.37593L20.129 0V16.1756H15.0968C12.3215 16.1756 10.0645 18.4473 10.0645 21.2407H5.03226C2.25697 21.2407 0 23.5125 0 26.3059V112.414C0 115.207 2.25697 117.479 5.03226 117.479H60.6412C61.0212 119.36 61.8515 121.065 62.9636 122.544H12.5806C5.64368 122.544 0 128.224 0 135.207V145.337C0 152.319 5.64368 158 12.5806 158H128.916L152.359 146.203C154.604 145.071 156 142.797 156 140.272C156 137.747 154.604 135.473 152.359 134.341L128.916 122.544H82.9719C84.084 121.065 84.9143 119.36 85.2943 117.479H140.903ZM123.29 61.762C121.901 61.762 120.774 60.6249 120.774 59.2294C120.774 57.834 121.901 56.6968 123.29 56.6968H138.387C138.692 56.6968 138.978 56.6411 139.273 56.6057C134.754 59.8398 129.246 61.762 123.29 61.762ZM110.71 64.287V66.8272H90.5806V51.6317H95.7714C99.3468 57.2337 104.543 61.6911 110.71 64.287ZM105.677 71.8923H115.742V65.9078C117.377 66.2978 119.056 66.5663 120.774 66.7005V84.5552H105.677V71.8923ZM145.845 49.9906C145.88 49.6943 145.935 49.4055 145.935 49.0991C145.935 44.9102 142.549 41.5014 138.387 41.5014H133.355C131.966 41.5014 130.839 40.3642 130.839 38.9688C130.839 37.5733 131.966 36.4362 133.355 36.4362H150.839C150.389 41.4583 148.6 46.0904 145.845 49.9906ZM147.913 21.2407H143.419C142.03 21.2407 140.903 20.1036 140.903 18.7082C140.903 17.3127 142.03 16.1756 143.419 16.1756H144.625C145.9 17.7281 146.992 19.4325 147.913 21.2407ZM140.174 11.8778C137.637 13.1036 135.871 15.6919 135.871 18.7082C135.871 22.897 139.258 26.3059 143.419 26.3059H149.896C150.356 27.9394 150.683 29.6312 150.842 31.3711H133.355C129.193 31.3711 125.806 34.7799 125.806 38.9688C125.806 43.1577 129.193 46.5665 133.355 46.5665H138.387C139.776 46.5665 140.903 47.7037 140.903 49.0991C140.903 50.4946 139.776 51.6317 138.387 51.6317H123.29C119.129 51.6317 115.742 55.0405 115.742 59.2294C115.742 59.741 115.795 60.2374 115.893 60.7211C108.385 58.6191 102.162 53.4197 98.67 46.5665H113.226C117.387 46.5665 120.774 43.1577 120.774 38.9688C120.774 34.7799 117.387 31.3711 113.226 31.3711H108.194C106.805 31.3711 105.677 30.2339 105.677 28.8385C105.677 27.443 106.805 26.3059 108.194 26.3059H118.258C122.42 26.3059 125.806 22.897 125.806 18.7082C125.806 14.5193 122.42 11.1104 118.258 11.1104H107.426C111.925 7.9295 117.387 6.04527 123.29 6.04527C129.649 6.04527 135.496 8.23595 140.174 11.8778ZM101.956 16.1756H118.258C119.647 16.1756 120.774 17.3127 120.774 18.7082C120.774 20.1036 119.647 21.2407 118.258 21.2407H108.194C104.032 21.2407 100.645 24.6496 100.645 28.8385C100.645 33.0274 104.032 36.4362 108.194 36.4362H113.226C114.615 36.4362 115.742 37.5733 115.742 38.9688C115.742 40.3642 114.615 41.5014 113.226 41.5014H96.6848C96.0029 39.0828 95.6129 36.5401 95.6129 33.9036C95.6129 27.1746 97.9957 20.9951 101.956 16.1756ZM93.1043 46.5665H85.5484V71.8923H100.645V89.6204H125.806V66.698C127.525 66.5663 129.203 66.2979 130.839 65.9053V97.2181H95.6129C88.5677 97.2181 81.5754 99.1251 75.4839 102.653V27.6355C80.6621 24.0088 86.7813 21.8131 93.0666 21.3471C91.4714 25.2194 90.5806 29.4564 90.5806 33.9036C90.5806 38.3888 91.4839 42.6664 93.1043 46.5665ZM25.1613 7.02537L30.1935 8.7146L35.2258 7.02537V16.1756H25.1613V7.02537ZM15.0968 21.2407H50.3226C57.486 21.2407 64.5739 23.5201 70.4516 27.6355V102.656C64.3601 99.1251 57.3677 97.2181 50.3226 97.2181H15.0968V21.2407ZM30.1935 152.935H25.1613V127.609H30.1935V152.935ZM35.2258 142.805H125.806V152.935H35.2258V142.805ZM130.839 129.174L140.903 134.239V146.302L130.839 151.367V129.174ZM125.806 137.739H35.2258V127.609H125.806V137.739ZM5.03226 145.337V135.207C5.03226 131.018 8.41897 127.609 12.5806 127.609H20.129V152.935H12.5806C8.41897 152.935 5.03226 149.526 5.03226 145.337ZM150.968 140.272C150.968 140.867 150.638 141.404 150.107 141.672L145.935 143.772V136.774L150.105 138.874C150.638 139.14 150.968 139.677 150.968 140.272ZM65.4194 114.946V112.414H5.03226V26.3059H10.0645V97.2181C10.0645 100.012 12.3215 102.283 15.0968 102.283H50.3226C57.8936 102.283 65.3992 104.801 71.4581 109.374L72.9677 110.514L74.4774 109.374C80.5363 104.801 88.0444 102.283 95.6129 102.283H130.839C133.614 102.283 135.871 100.012 135.871 97.2181V64.287C137.635 63.5449 139.311 62.6307 140.903 61.6024V112.414H80.5161V114.946C80.5161 119.135 77.1294 122.544 72.9677 122.544C68.8061 122.544 65.4194 119.135 65.4194 114.946ZM60.3871 31.3711H20.129V46.5665H60.3871V31.3711ZM55.3548 41.5014H25.1613V36.4362H55.3548V41.5014ZM60.3871 56.6968H20.129V51.6317H60.3871V56.6968ZM60.3871 87.0878V66.8272H35.2258V61.762H20.129V76.9575H25.1613V87.0878H60.3871ZM55.3548 71.8923V82.0226H30.1935V76.9575H35.2258V71.8923H55.3548ZM25.1613 66.8272H30.1935V71.8923H25.1613V66.8272ZM85.5484 76.9575H95.6129V82.0226H85.5484V76.9575ZM85.5484 84.5552H95.6129V89.6204H85.5484V84.5552Z" fill="#0770F0"/>
</svg>
