<svg width="157" height="158" viewBox="0 0 157 158" fill="none" xmlns="http://www.w3.org/2000/svg">
<path d="M59.622 136.594C59.3351 135.532 58.6463 134.644 57.6834 134.092C56.7201 133.541 55.5997 133.394 54.5283 133.679L54.2295 133.758L55.3368 125.359C55.9119 120.999 54.8324 117.02 52.128 113.531C52.0599 113.443 51.9858 113.36 51.9064 113.282L31.2592 92.9763C28.2272 89.9948 23.8498 89.1602 20.0631 90.4632L20.0628 62.8972C20.0628 60.2496 19.017 57.7548 17.118 55.8728C15.2194 53.9907 12.7031 52.9545 10.0325 52.9545C10.0322 52.9545 10.0315 52.9545 10.0312 52.9545C4.49993 52.9551 0 57.4156 0 62.8975L0.000625181 108.909C0.000625181 113.074 1.57019 116.859 4.66589 120.159L15.8948 132.132C18.8148 135.245 19.8646 138.47 19.3868 143.013L18.3979 143.275C16.1829 143.864 14.864 146.129 15.4575 148.324L17.2468 154.943C17.5337 156.005 18.2226 156.893 19.1855 157.445C19.8278 157.812 20.5397 158 21.2604 158C21.6208 158 21.9833 157.953 22.3406 157.858L58.4703 148.262C60.6853 147.674 62.0048 145.409 61.4113 143.213L59.622 136.594ZM55.8225 138.467C55.8213 138.467 55.82 138.467 55.8188 138.468L55.8225 138.467ZM19.5574 128.757L8.32853 116.784C6.08981 114.397 5.00155 111.821 5.00155 108.908L5.00093 62.8969C5.00093 60.1477 7.25777 57.9113 10.0322 57.9107C11.3673 57.9107 12.6284 58.4314 13.5826 59.3772C14.5371 60.3234 15.0625 61.5731 15.0625 62.8969L15.0628 94.034C11.7665 98.2559 12.0831 104.366 16.002 108.219L27.0311 119.066C28.0116 120.03 29.5946 120.024 30.5672 119.052C31.5398 118.081 31.5336 116.511 30.5531 115.547L19.5243 104.701C17.2421 102.456 17.2274 98.7897 19.4918 96.5273C21.7564 94.2651 25.4556 94.2505 27.7378 96.495L48.2606 116.678C50.0815 119.086 50.7744 121.717 50.3787 124.716L49.0039 135.146L24.4871 141.657C24.6352 136.565 23.0582 132.489 19.5574 128.757ZM21.8593 152.854L20.5057 147.847L55.0096 138.682L56.3632 143.689L21.8593 152.854ZM146.968 52.9542C146.968 52.9542 146.968 52.9542 146.967 52.9542C144.297 52.9542 141.78 53.9908 139.882 55.8725C137.983 57.7545 136.937 60.2493 136.937 62.8969L136.937 90.4629C133.15 89.1602 128.773 89.9945 125.741 92.9763L105.094 113.282C105.014 113.36 104.94 113.443 104.872 113.531C102.168 117.019 101.088 120.999 101.663 125.359L102.771 133.758L102.472 133.679C101.4 133.394 100.28 133.541 99.3169 134.092C98.354 134.643 97.6652 135.531 97.3783 136.593L95.589 143.213C94.9958 145.408 96.315 147.673 98.5303 148.261L134.66 157.857C135.017 157.952 135.38 157.999 135.74 157.999C136.461 157.999 137.173 157.812 137.815 157.444C138.778 156.893 139.467 156.005 139.753 154.943L141.543 148.324C142.136 146.128 140.817 143.864 138.601 143.275L137.613 143.012C137.135 138.469 138.185 135.245 141.105 132.132L152.334 120.159C155.43 116.859 156.999 113.073 156.999 108.909L157 62.8975C157 57.4153 152.5 52.9548 146.968 52.9542ZM101.177 138.467L101.181 138.468C101.18 138.467 101.179 138.467 101.177 138.467C101.177 138.467 101.177 138.467 101.177 138.467ZM135.141 152.854L100.637 143.689L101.99 138.682L136.494 147.847L135.141 152.854ZM151.998 108.908C151.998 111.821 150.91 114.397 148.671 116.784L137.443 128.756C133.942 132.49 132.364 136.565 132.513 141.657L107.996 135.146L106.621 124.716C106.225 121.717 106.919 119.086 108.739 116.678L129.262 96.4947C131.545 94.2502 135.244 94.2648 137.508 96.5269C139.773 98.7894 139.758 102.456 137.476 104.7L126.447 115.547C125.466 116.511 125.46 118.08 126.433 119.052C127.405 120.024 128.989 120.03 129.969 119.066L140.998 108.219C144.917 104.365 145.233 98.2553 141.937 94.0334L141.937 62.8963C141.937 61.5728 142.463 60.3228 143.417 59.3766C144.371 58.4308 145.632 57.91 146.967 57.91H146.968C149.742 57.9103 151.999 60.1471 151.999 62.8963L151.998 108.908ZM132.228 61.3702V20.6624C132.228 19.8108 131.787 19.0193 131.06 18.5654C110.496 5.72573 94.2857 0 78.4997 0C62.7134 0 46.5036 5.72573 25.9398 18.5654C25.2128 19.0193 24.7721 19.8111 24.7721 20.6624V61.3702C24.7721 77.1889 31.9086 90.9853 44.8668 100.218L77.0408 123.139C77.4767 123.45 77.9884 123.605 78.5 123.605C79.0116 123.605 79.5233 123.45 79.9592 123.139L112.132 100.218C125.091 90.9853 132.228 77.1892 132.228 61.3702ZM78.5 118.074L47.7853 96.1924C36.1695 87.9167 29.7727 75.5498 29.7727 61.3699V22.0349C66.9351 -0.875806 90.0639 -0.875806 127.227 22.0349V61.3702C127.227 75.5501 120.83 87.917 109.214 96.1927L78.5 118.074ZM123.477 25.5102C123.477 24.6393 123.016 23.8323 122.263 23.3847C105.164 13.2229 91.6676 8.69145 78.5 8.69145C78.4994 8.69145 78.5006 8.69145 78.4997 8.69145C65.3327 8.69145 51.8345 13.2235 34.7374 23.3847C33.9839 23.8326 33.5229 24.6393 33.5229 25.5102V61.3702C33.5229 74.5091 39.2117 85.5067 49.974 93.174L77.0411 112.457C77.4771 112.767 77.9887 112.923 78.5003 112.923C79.0119 112.923 79.5236 112.768 79.9596 112.457L107.025 93.174C117.789 85.5061 123.478 74.5085 123.478 61.3699V25.5102H123.477ZM118.476 61.3702C118.476 72.8458 113.507 82.4515 104.106 89.1491L78.5 107.392L52.8922 89.1491C43.4919 82.4521 38.5232 72.8461 38.5232 61.3702V26.9198C68.9719 9.11308 88.0274 9.11308 118.476 26.9198V61.3702ZM59.0804 35.4876V41.8345H58.9726C54.6971 41.8345 51.2188 45.2823 51.2188 49.5206V81.0218C51.2188 85.2598 54.6971 88.7076 58.9726 88.7076H98.0271C102.303 88.7076 105.781 85.2598 105.781 81.0218V49.5206C105.781 45.2826 102.303 41.8345 98.0271 41.8345H97.9196V35.4876C97.9196 24.8736 89.2079 16.2382 78.5 16.2382C67.7921 16.2382 59.0804 24.8736 59.0804 35.4876ZM100.781 49.5206V81.0218C100.781 82.5265 99.5454 83.7508 98.0271 83.7508H58.9726C57.4546 83.7508 56.2194 82.5265 56.2194 81.0218V49.5206C56.2194 48.0159 57.4546 46.7913 58.9726 46.7913H98.0271C99.5454 46.7913 100.781 48.0156 100.781 49.5206ZM86.4557 41.8345H70.5443V35.4876C70.5443 31.1393 74.1132 27.6017 78.5 27.6017C82.8868 27.6017 86.4557 31.1393 86.4557 35.4876V41.8345ZM78.5 21.195C86.4507 21.195 92.919 27.6066 92.919 35.4876V41.8345H91.4563V35.4876C91.4563 28.4062 85.644 22.6449 78.5 22.6449C71.356 22.6449 65.5437 28.4062 65.5437 35.4876V41.8345H64.081V35.4876C64.081 27.6066 70.5493 21.195 78.5 21.195ZM72.8209 67.6071V72.1116C72.8209 75.2158 75.3684 77.741 78.5 77.741C81.6316 77.741 84.1791 75.2158 84.1791 72.1116V67.6071C85.9959 66.0141 87.0467 63.7343 87.0467 61.2732C87.0467 56.6017 83.2125 52.8014 78.5 52.8014C73.7875 52.8014 69.9536 56.6017 69.9536 61.2732C69.9536 63.7343 71.0041 66.0141 72.8209 67.6071ZM78.5 57.7582C80.4552 57.7582 82.0461 59.3351 82.0461 61.2732C82.0461 62.4994 81.4166 63.6178 80.3624 64.265C79.6264 64.7167 79.1785 65.5138 79.1785 66.3719V72.1116C79.1785 72.4762 78.8679 72.7842 78.5 72.7842C78.1321 72.7842 77.8215 72.4762 77.8215 72.1116V66.3719C77.8215 65.5138 77.3736 64.7167 76.6376 64.265C75.5834 63.6178 74.9539 62.4994 74.9539 61.2732C74.9543 59.3351 76.5448 57.7582 78.5 57.7582Z" fill="#0770F0"/>
</svg>
