<svg width="157" height="158" viewBox="0 0 157 158" fill="none" xmlns="http://www.w3.org/2000/svg">
<path d="M132.334 56.8236H140.228C141.29 60.8178 144.538 63.7533 148.414 63.7533C153.149 63.7533 157 59.4014 157 54.0517C157 48.702 153.149 44.3501 148.414 44.3501C144.538 44.3501 141.293 47.2855 140.228 51.2798H131.242C130.546 51.2798 129.883 51.6124 129.42 52.1973L122.656 60.6876V54.4508L78.5 26.732L62.5203 36.7635C61.3355 37.5063 59.8415 37.024 59.1841 35.688C58.5242 34.3492 58.9535 32.6611 60.1359 31.9182L77.3078 21.1384C78.0511 20.6727 78.9489 20.6727 79.6922 21.1384L122.656 48.1088V32.456L130.393 12.4735H140.228C141.29 16.4677 144.538 19.4032 148.414 19.4032C153.149 19.4032 157 15.0513 157 9.70158C157 4.35185 153.149 0 148.414 0C144.538 0 141.293 2.93542 140.228 6.9297H128.789C127.815 6.9297 126.932 7.58109 126.542 8.59006L119.394 27.0563L78.5 1.38594L37.6089 27.0563L30.4605 8.59006C30.0704 7.58109 29.1873 6.9297 28.2134 6.9297H16.772C15.7098 2.93542 12.4619 0 8.58594 0C3.85141 0 0 4.35185 0 9.70158C0 15.0513 3.85141 19.4032 8.58594 19.4032C12.4619 19.4032 15.7074 16.4677 16.772 12.4735H26.6066L34.3438 32.456V48.1088L50.814 37.7696C52.0013 37.024 53.4928 37.5091 54.1503 38.8451C54.8102 40.184 54.3809 41.872 53.1985 42.6149L34.3438 54.4508V60.6876L27.5805 52.1973C27.1168 51.6124 26.4545 51.2798 25.7578 51.2798H16.772C15.7098 47.2855 12.4619 44.3501 8.58594 44.3501C3.85141 44.3501 0 48.702 0 54.0517C0 59.4014 3.85141 63.7533 8.58594 63.7533C12.4619 63.7533 15.7074 60.8178 16.772 56.8236H24.6662L34.3438 68.9755V89.0245L24.6662 101.176H16.772C15.7098 97.1822 12.4619 94.2467 8.58594 94.2467C3.85141 94.2467 0 98.5986 0 103.948C0 109.298 3.85141 113.65 8.58594 113.65C12.4619 113.65 15.7074 110.714 16.772 106.72H25.7578C26.4545 106.72 27.1168 106.388 27.5805 105.803L34.3438 97.3124V103.549L78.5 131.268L94.4797 121.237C95.667 120.494 97.1585 120.976 97.8159 122.312C98.4758 123.651 98.0465 125.339 96.8641 126.082L79.6922 136.862C79.3218 137.094 78.2596 137.507 77.3078 136.862L34.3438 109.891V125.544L26.6066 145.527H16.772C15.7098 141.532 12.4619 138.597 8.58594 138.597C3.85141 138.597 0 142.949 0 148.298C0 153.648 3.85141 158 8.58594 158C12.4619 158 15.7074 155.065 16.772 151.07H28.2109C29.1848 151.07 30.068 150.419 30.458 149.41L37.6064 130.944L78.4976 156.614L119.389 130.944L126.537 149.41C126.927 150.419 127.81 151.07 128.784 151.07H140.223C141.285 155.065 144.533 158 148.409 158C153.144 158 156.995 153.648 156.995 148.298C156.995 142.949 153.144 138.597 148.409 138.597C144.533 138.597 141.288 141.532 140.223 145.527H130.389L122.651 125.544V109.891L106.181 120.23C105.803 120.466 103.905 121.206 102.845 119.155C102.185 117.816 102.614 116.128 103.797 115.385L122.651 103.549V97.3124L129.415 105.803C129.878 106.388 130.541 106.72 131.237 106.72H140.223C141.285 110.714 144.533 113.65 148.409 113.65C153.144 113.65 156.995 109.298 156.995 103.948C156.995 98.5986 153.144 94.2467 148.409 94.2467C144.533 94.2467 141.288 97.1822 140.223 101.176H132.329L122.651 89.0245V68.9755L132.329 56.8236H132.334ZM51.5156 95.6299C50.1615 95.6299 49.0625 94.3881 49.0625 92.858C49.0625 91.3279 50.1615 90.0861 51.5156 90.0861C52.8698 90.0861 53.9688 91.3279 53.9688 92.858C53.9688 94.3881 52.8698 95.6299 51.5156 95.6299ZM53.9688 81.7705C53.9688 83.3006 52.8698 84.5424 51.5156 84.5424C50.1615 84.5424 49.0625 83.3006 49.0625 81.7705V62.7C49.0625 61.7104 49.5286 60.7929 50.2891 60.2995L68.8396 48.1947C69.5706 42.8893 73.6036 38.8063 78.5 38.8063C83.9116 38.8063 88.3125 43.7791 88.3125 49.8939C88.3125 56.0086 83.9116 60.9814 78.5 60.9814C74.4376 60.9814 70.9444 58.1762 69.4553 54.1931L53.9688 64.2993V81.7705ZM107.938 95.2973C107.938 96.2868 107.471 97.2043 106.711 97.6977L88.1604 109.803C87.4294 115.108 83.3964 119.191 78.5 119.191C73.0884 119.191 68.6875 114.218 68.6875 108.103C68.6875 101.989 73.0884 97.0158 78.5 97.0158C82.5624 97.0158 86.0556 99.821 87.5447 103.804L103.031 93.6979V76.2267C103.031 74.6967 104.13 73.4548 105.484 73.4548C106.839 73.4548 107.938 74.6967 107.938 76.2267V95.2973ZM105.484 67.9111C104.13 67.9111 103.031 66.6693 103.031 65.1392C103.031 63.6091 104.13 62.3673 105.484 62.3673C106.839 62.3673 107.938 63.6091 107.938 65.1392C107.938 66.6693 106.839 67.9111 105.484 67.9111Z" fill="#0770F0"/>
</svg>
