<svg width="157" height="156" viewBox="0 0 157 156" fill="none" xmlns="http://www.w3.org/2000/svg">
<path d="M153.297 57.1336L147.485 55.4011C146.182 51.1086 143.976 46.9996 140.917 43.1607L143.43 38.7903C144.458 37.0693 143.869 35.0322 141.972 33.632L135.125 28.3096C133.738 27.2382 131.848 26.7312 130.068 26.8709V25.7821L134.367 23.3928C135.566 24.0386 137.016 24.4208 138.583 24.4208C142.666 24.4208 145.986 21.8577 145.986 18.709C145.986 15.5054 142.732 12.9966 138.583 12.9966C134.503 12.9966 131.182 15.5591 131.182 18.709C131.182 19.2703 131.323 19.801 131.518 20.3143L126.185 23.277C125.545 23.6346 125.166 24.2052 125.166 24.8146V28.3099L122.776 29.1217C118.112 26.9109 113.048 25.2813 107.699 24.2255V22.2047L113.936 19.4522C114.699 19.1153 115.171 18.4888 115.171 17.8099V11.0769C118.045 10.2919 120.121 8.19591 120.121 5.71396C120.121 2.56276 116.801 0.000311977 112.72 0.000311977C108.571 0.000311977 105.319 2.51035 105.319 5.71396C105.319 8.19591 107.395 10.2922 110.269 11.0769V16.7119L104.468 19.2719C103.505 17.7272 101.381 16.7425 98.8898 16.7425H89.2327C86.7386 16.7425 84.6121 17.7297 83.665 19.2544L77.9025 16.7122V11.0803C80.8035 10.2985 82.9018 8.19934 82.9018 5.71364C82.9018 2.56245 79.5589 0 75.4513 0C71.3719 0 68.0513 2.56245 68.0513 5.71364C68.0513 8.1956 70.1273 10.2913 73.0013 11.0766V17.8095C73.0013 18.4885 73.471 19.115 74.2362 19.4519L80.4729 22.2044V24.2152C75.1417 25.267 70.0764 26.9006 65.3916 29.122L63.0042 28.3177V24.8142C63.0042 24.2049 62.6247 23.6346 61.9864 23.2767L56.6536 20.314C56.8496 19.8007 56.9879 19.27 56.9879 18.7087C56.9879 15.5588 53.6685 12.9963 49.5867 12.9963C45.5061 12.9963 42.1859 15.5588 42.1859 18.7087C42.1859 21.8574 45.5061 24.4205 49.5867 24.4205C51.1554 24.4205 52.6046 24.0383 53.8035 23.3925L58.1039 25.7818V26.8706C56.3472 26.7203 54.4668 27.2198 52.9926 28.313L46.1957 33.5977C44.8448 34.5964 44.1673 35.9146 44.2421 37.2309C25.0948 47.3191 13.596 63.7892 13.3191 81.683C3.58802 91.2361 -0.736695 98.0648 0.102055 102.547C0.420173 104.247 1.50711 105.646 3.24322 106.59C6.1556 108.171 10.5074 109.162 16.5549 109.622C18.3957 109.756 18.8088 112.261 19.3727 118.378C19.7632 122.621 20.2498 127.901 21.9023 134.247C23.5094 140.544 28.928 144.614 35.7091 144.614H57.7155V154.109C57.7155 155.154 58.8121 156 60.1654 156H132.422C132.785 156 133.13 155.939 133.44 155.829C133.752 155.94 134.096 156 134.455 156C134.525 156 134.595 155.997 134.663 155.994C136.012 155.906 137.014 154.993 136.902 153.951L133.699 124.41C133.506 122.501 134.213 120.914 135.864 119.554C148.085 109.433 154.816 96.2206 154.816 82.3438C154.816 79.3224 154.473 76.2885 153.836 73.299C155.768 72.4959 157 70.8778 157 69.048V61.5569C157 59.5694 155.51 57.7916 153.297 57.1336ZM138.583 16.779C139.985 16.779 141.083 17.6273 141.083 18.709C141.083 19.7711 139.962 20.6378 138.583 20.6378C137.229 20.6378 136.085 19.7542 136.085 18.709C136.085 17.6457 137.205 16.779 138.583 16.779ZM112.72 3.78362C114.098 3.78362 115.218 4.64879 115.218 5.71364C115.218 6.75759 114.073 7.64055 112.72 7.64055C111.343 7.64055 110.221 6.776 110.221 5.71364C110.221 4.61291 111.295 3.78362 112.72 3.78362ZM75.4517 3.78362C76.8802 3.78362 77.9995 4.63194 77.9995 5.71364C77.9995 6.77569 76.8563 7.64055 75.4517 7.64055C74.0976 7.64055 72.9536 6.75759 72.9536 5.71364C72.9536 4.64879 74.0741 3.78362 75.4517 3.78362ZM47.0886 18.709C47.0886 17.6457 48.2099 16.779 49.5875 16.779C50.9667 16.779 52.0872 17.6454 52.0872 18.709C52.0872 19.7542 50.9432 20.6378 49.5875 20.6378C48.2334 20.6375 47.0886 19.7539 47.0886 18.709ZM64.6199 32.9889C65.3762 33.2429 66.244 33.1889 66.9332 32.8432C71.1322 30.7438 75.676 29.1676 80.4733 28.1218V33.8407C80.4733 34.8865 81.5711 35.7317 82.924 35.7317C84.279 35.7317 85.3752 34.8865 85.3752 33.8407V26.2214L88.0386 20.9386C88.1344 20.7352 88.6077 20.5255 89.2327 20.5255H98.8898C99.4759 20.5255 99.9691 20.6943 100.1 20.9673L102.796 26.3187V33.8407C102.796 34.8865 103.893 35.7317 105.247 35.7317C106.601 35.7317 107.699 34.8865 107.699 33.8407V28.1554C112.512 29.2041 117.065 30.7556 121.238 32.8432C121.929 33.1886 122.8 33.2454 123.556 32.9883L125.166 32.4423V53.2421C125.166 53.5229 125.247 53.7996 125.402 54.0545C127.565 57.5676 128.66 61.3781 128.66 65.3773C128.66 80.1136 113.15 92.1019 94.0861 92.1019C74.9953 92.1019 59.4629 80.1136 59.4629 65.3773C59.4629 61.4037 60.5745 57.5829 62.7678 54.0174C62.9238 53.7622 63.0047 53.4854 63.0047 53.2049V32.4448L64.6199 32.9889ZM49.6283 36.2986L56.428 31.0106C56.7611 30.7644 57.1471 30.6174 57.4645 30.6174C57.5485 30.6174 57.6209 30.6296 57.7288 30.6667L58.1039 30.7928V52.7862C55.7538 56.7521 54.5602 60.9846 54.5602 65.377C54.5602 82.2 72.2915 95.8852 94.0857 95.8852C115.852 95.8852 133.561 82.2 133.561 65.377C133.561 60.9603 132.386 56.738 130.067 52.8227V30.7775L130.405 30.663C130.757 30.5369 131.265 30.6801 131.651 30.9787L138.539 36.3308C138.978 36.6549 139.092 37.0162 138.963 37.2309L135.906 42.5489C135.569 43.1345 135.64 43.811 136.089 44.346C139.441 48.3362 141.757 52.6555 142.978 57.1854C143.146 57.8132 143.718 58.333 144.494 58.5645L151.533 60.6633C151.805 60.745 152.097 61.0857 152.097 61.5572V69.0483C152.097 69.5609 151.765 69.9019 151.544 69.9758L144.507 72.0363C143.723 72.2653 143.146 72.7888 142.975 73.4219C141.772 77.9343 139.455 82.2543 136.09 86.26C135.64 86.7957 135.57 87.4721 135.907 88.0565L138.979 93.3995C139.095 93.5951 138.967 93.9808 138.499 94.3399L131.656 99.6226C131.264 99.9281 130.791 100.077 130.398 99.9403L123.556 97.6187C122.798 97.3628 121.929 97.4171 121.237 97.7625C116.171 100.298 110.568 102.088 104.585 103.082C103.78 103.216 103.115 103.654 102.818 104.246L100.084 109.668C99.9687 109.91 99.4755 110.081 98.8894 110.081H89.2323C88.6073 110.081 88.134 109.871 88.0216 109.64L85.3045 104.246C85.0058 103.654 84.34 103.216 83.5377 103.082C77.6005 102.095 72.0142 100.306 66.9324 97.7625C66.5298 97.5619 66.0662 97.4583 65.6005 97.4583C65.2683 97.4583 64.9328 97.5114 64.6215 97.6174L57.6819 99.9543C57.378 100.065 56.8355 99.8988 56.4644 99.6226L49.6218 94.3424C49.2043 94.0201 49.0264 93.6198 49.1586 93.3746L52.2153 88.0553C52.5504 87.4721 52.4809 86.7957 52.031 86.26C48.7326 82.3326 46.4152 78.0086 45.1411 73.4091C44.9665 72.7807 44.3913 72.2634 43.6144 72.0363L36.6627 70.0039C36.3789 69.91 36.0737 69.5724 36.0737 69.0483V61.5572C36.0737 61.077 36.3393 60.7382 36.5907 60.6627L43.6277 58.5645C44.3981 58.3342 44.9669 57.8204 45.1411 57.1988C46.4289 52.5803 48.7487 48.2557 52.031 44.346C52.4809 43.811 52.5504 43.1345 52.2153 42.5508L49.2568 37.4003C49.2483 37.3825 49.237 37.3657 49.2281 37.3504L49.1768 37.2596C49.0551 37.039 49.1327 36.6637 49.6283 36.2986ZM132.282 116.97C129.715 119.085 128.516 121.761 128.814 124.714L131.795 152.216H62.6178V142.722C62.6178 141.678 61.5196 140.831 60.1658 140.831H35.7095C30.4494 140.831 27.6126 137.053 26.708 133.508C25.1162 127.391 24.6429 122.244 24.2609 118.108C23.6311 111.255 23.1735 106.303 17.0262 105.857C11.9234 105.47 8.23611 104.673 6.06385 103.494C5.42357 103.147 5.0816 102.689 4.95266 102.005C4.5929 100.078 5.76392 95.118 17.6835 83.5197C18.0287 83.1853 18.2162 82.7716 18.2162 82.3435C18.2162 65.7941 28.5326 50.4871 45.9249 40.9318L47.2054 43.1604C44.2029 46.9369 42.0024 51.044 40.6458 55.3992L34.8291 57.1324C32.608 57.7923 31.1706 59.5298 31.1706 61.5572V69.0483C31.1706 71.0341 32.5776 72.7757 34.8392 73.5133L40.6454 75.2128C41.9898 79.5514 44.1928 83.6573 47.205 87.4447L44.6621 91.8701C43.7276 93.5739 44.3125 95.5935 46.1561 97.0168L53.0367 102.326C54.2954 103.257 55.8686 103.771 57.4624 103.771C58.262 103.771 59.0268 103.642 59.6893 103.404L65.3911 101.485C70.2939 103.81 75.6033 105.51 81.2082 106.552L83.4398 110.982C84.2814 112.733 86.5547 113.864 89.2323 113.864H98.8894C101.568 113.864 103.84 112.733 104.665 111.01L106.913 106.552C112.559 105.505 117.882 103.805 122.775 101.486L128.414 103.4C130.614 104.154 133.294 103.71 135.125 102.299L141.967 97.0171C143.865 95.5504 144.441 93.5078 143.445 91.8411L140.917 87.445C143.986 83.5949 146.192 79.489 147.485 75.2099L149.175 74.7145C149.661 77.2404 149.915 79.7966 149.915 82.3444C149.915 95.2603 143.653 107.558 132.282 116.97ZM71.7458 65.8562C71.8323 64.8129 72.9512 64.017 74.3474 64.089C75.6999 64.1567 76.7246 65.0556 76.6369 66.0986C76.5504 67.1338 77.2404 68.1107 78.4376 68.6527C79.6155 69.1834 81.0295 69.1469 82.2231 68.5491C83.3529 67.9819 84.8752 68.2262 85.6109 69.1047C86.3478 69.9811 86.0252 71.1518 84.8894 71.7202C83.4507 72.4428 81.8218 72.806 80.1996 72.806C78.7327 72.806 77.2739 72.5099 75.961 71.9162C73.1549 70.6485 71.5389 68.3254 71.7458 65.8562ZM105.974 68.5606C107.105 69.1431 108.528 69.179 109.686 68.6527C110.884 68.111 111.573 67.1342 111.486 66.0986C111.399 65.0553 112.425 64.1564 113.774 64.089C115.12 64.0142 116.291 64.8129 116.377 65.8562C116.584 68.3254 114.968 70.6482 112.163 71.9165C110.842 72.5124 109.384 72.8091 107.926 72.8091C106.304 72.8091 104.683 72.4416 103.255 71.7087C102.131 71.1299 101.824 69.9562 102.575 69.0854C103.325 68.2159 104.851 67.9853 105.974 68.5606ZM66.8819 75.131C66.8395 76.8891 67.5404 78.6032 68.8755 79.9523C70.1229 81.2509 71.7992 82.204 73.7111 82.7238C74.4355 85.973 77.9696 88.6097 82.3687 88.9108C82.6548 88.9298 82.9394 88.9407 83.2207 88.9407H83.2215C87.9986 88.9407 92.1062 86.1692 92.7752 82.4954C92.7906 82.4084 92.7995 82.3198 92.7995 82.2315V47.3996C92.7995 47.1175 92.7186 46.837 92.5586 46.5831C90.7751 43.7099 86.982 41.8544 82.8986 41.8544C81.9099 41.8544 80.9228 41.9611 79.9672 42.173C75.6425 43.1345 72.5902 46.1247 72.2491 49.48C69.7531 50.2984 67.6806 51.7944 66.5246 53.6561C65.2367 55.6055 64.9784 57.8796 65.7582 59.9569C63.3782 62.0283 62.0794 64.7985 62.231 67.6174C62.4416 70.5437 64.1179 73.2253 66.8819 75.131ZM70.2167 61.8611C71.0498 61.3029 71.2959 60.384 70.8198 59.6162C69.9907 58.2812 70.0174 56.6975 70.9176 55.334C71.7438 54.0024 73.3659 53.0159 75.2557 52.6911C76.4861 52.4814 77.3091 51.5825 77.1571 50.6163C76.8188 48.4775 78.6086 46.4099 81.3197 45.809C81.8355 45.6932 82.3674 45.6358 82.8978 45.6358C84.9395 45.6358 86.8506 46.5001 87.8979 47.8691V51.9763C86.8215 51.7551 85.6663 51.7123 84.5029 51.9257C83.1848 52.1622 82.365 53.1803 82.6746 54.1974C82.9827 55.2139 84.3 55.856 85.6186 55.6086C86.5753 55.4348 87.4929 55.797 87.8983 56.4385V82.0858C87.4796 83.9515 85.2709 85.3028 82.8004 85.1424C80.2906 84.9705 78.354 83.2552 78.4821 81.3173C78.5468 80.3373 77.632 79.4818 76.3729 79.3474C74.9541 79.1945 73.6869 78.6076 72.7879 77.6735C71.9589 76.8367 71.6177 75.7151 71.8538 74.5944C72.0029 73.8893 71.6226 73.1795 70.8723 72.7601C68.6782 71.5346 67.2784 69.5334 67.1281 67.4337C67.0125 65.3205 68.1693 63.2373 70.2167 61.8611ZM104.951 88.9404C105.232 88.9404 105.517 88.9295 105.804 88.9105C110.266 88.6056 113.736 86.0092 114.424 82.7185C116.354 82.1919 118.069 81.2262 119.304 79.9452C120.639 78.5424 121.32 76.8367 121.259 75.1257C124.03 73.2209 125.735 70.4791 125.894 67.5909C126.048 64.7202 124.779 62.0005 122.368 59.9426C123.136 57.889 122.901 55.6301 121.657 53.6698C120.419 51.7588 118.372 50.2878 115.887 49.4784C115.578 46.0854 112.585 43.1451 108.204 42.1726C107.247 41.9605 106.261 41.8541 105.268 41.8541C101.139 41.8541 97.3457 43.7158 95.6031 46.5993C95.4499 46.8504 95.3731 47.1241 95.3731 47.3993V82.2312C95.3731 82.3117 95.3788 82.3915 95.3921 82.4714C96.0049 86.1593 100.114 88.9404 104.951 88.9404ZM106.851 45.809C109.578 46.414 111.311 48.4367 110.967 50.6163C110.814 51.5829 111.638 52.4817 112.867 52.6911C114.781 53.0196 116.386 53.9921 117.264 55.3474C118.116 56.6912 118.13 58.2846 117.305 59.6162C116.824 60.3884 117.078 61.3151 117.922 61.871C119.992 63.2373 121.113 65.2653 120.996 67.434C120.882 69.5443 119.488 71.5308 117.268 72.7508C116.49 73.1773 116.106 73.9145 116.279 74.6374C116.535 75.702 116.199 76.8195 115.361 77.6966C114.501 78.5917 113.185 79.1945 111.751 79.348C110.492 79.4828 109.575 80.3383 109.64 81.318C109.771 83.2898 107.896 84.9699 105.371 85.1431C102.834 85.3053 100.654 83.9547 100.273 82.0986V56.4226C100.647 55.8051 101.579 55.4367 102.491 55.6067C103.81 55.8473 105.132 55.2233 105.447 54.2071C105.76 53.19 104.949 52.1688 103.632 51.9267C102.487 51.7164 101.345 51.7591 100.273 51.9766V47.8591C101.556 46.1466 104.344 45.2521 106.851 45.809Z" fill="#0770F0"/>
</svg>
