<svg width="157" height="158" viewBox="0 0 157 158" fill="none" xmlns="http://www.w3.org/2000/svg">
<path d="M146.694 40.7742H121.724L116.659 112.129H111.418V91.7419H105.386L101.099 35.6774H76.1514L74.1357 62.0354L73.5558 62.3259C69.9145 60.1853 66.025 58.5772 61.9684 57.5324L59.7198 53.5161H41.5689L39.3152 57.5324C35.2561 58.5798 31.3691 60.1878 27.7278 62.3259L21.496 59.1914L8.16893 72.601L11.2861 78.8726C9.21221 82.448 7.6397 86.2604 6.59643 90.2358L0 92.4529V111.415L6.59896 113.63C7.6397 117.608 9.21221 121.42 11.2886 124.996L8.17147 131.267L21.4985 144.68L27.7354 141.543C29.8169 142.781 33.5088 144.919 35.4536 146.04V158H157V112.129H151.761L146.694 40.7742ZM141.979 45.871L142.703 56.0645H125.712L126.436 45.871H141.979ZM125.35 61.1613H143.065L146.684 112.129H121.734L125.35 61.1613ZM35.451 91.7419V128.408C26.1148 122.995 20.2577 112.99 20.2577 101.935C20.2577 85.0728 33.8887 71.3548 50.6443 71.3548C59.0057 71.3548 66.9645 74.8563 72.6924 80.9495L71.8694 91.7419H35.451ZM79.6737 56.0645H97.579L100.306 91.7419H76.9465L79.6737 56.0645ZM96.4116 40.7742L97.1916 50.9677H80.0636L80.8436 40.7742H96.4116ZM29.1863 136.476L27.981 135.717L22.4962 138.479L14.3323 130.263L17.0773 124.741L16.3227 123.525C13.9221 119.667 12.1952 115.483 11.1924 111.087L10.8733 109.69L5.06443 107.743V96.1252L10.8733 94.1757L11.1924 92.7791C12.1952 88.3806 13.9221 84.1987 16.3227 80.3405L17.0773 79.1274L14.3323 73.6076L22.4962 65.3942L27.9835 68.1541L29.1914 67.3946C33.0252 64.9762 37.1831 63.2408 41.5512 62.2316L42.6425 61.9793L44.5265 58.6129H56.7622L58.6487 61.9793L59.7401 62.2316C64.1081 63.2408 68.266 64.9788 72.0998 67.3946L73.3077 68.1541L73.6875 67.9629L73.1912 74.469C66.8784 69.2244 58.9348 66.2581 50.6443 66.2581C31.0956 66.2581 15.1933 82.2619 15.1933 101.935C15.1933 115.804 23.0964 128.255 35.451 134.155V140.161C32.9745 138.724 30.0448 137.017 29.1863 136.476ZM65.8376 152.903H40.5155V96.8387H106.353V112.129H77.4504L65.8376 123.816V152.903ZM91.1598 152.903H81.031V137.613H91.1598V152.903ZM116.482 152.903H106.353V137.613H116.482V152.903ZM141.804 152.903H131.675V137.613H141.804V152.903ZM146.869 152.903V132.516H126.611V152.903H121.546V132.516H101.289V152.903H96.2243V132.516H75.9665V152.903H70.9021V127.419H151.933V152.903H146.869ZM151.933 122.323H74.4826L79.5471 117.226H151.933V122.323ZM156.997 22.9355C156.997 27.1505 153.589 30.5806 149.401 30.5806H144.336C142.939 30.5806 141.804 31.7249 141.804 33.129V35.6774H136.74V33.129C136.74 28.914 140.148 25.4839 144.336 25.4839H149.401C150.799 25.4839 151.933 24.3396 151.933 22.9355C151.933 21.5313 150.799 20.3871 149.401 20.3871H126.611V15.2903H149.401C153.589 15.2903 156.997 18.7205 156.997 22.9355ZM111.418 17.8387C111.418 22.0537 114.826 25.4839 119.014 25.4839H124.079C128.267 25.4839 131.675 28.914 131.675 33.129V35.6774H126.611V33.129C126.611 31.7249 125.476 30.5806 124.079 30.5806H119.014C112.033 30.5806 106.353 24.8646 106.353 17.8387C106.353 10.8128 112.033 5.09677 119.014 5.09677H136.74V10.1935H119.014C114.826 10.1935 111.418 13.6237 111.418 17.8387ZM146.869 5.09677V10.1935H141.804V5.09677H146.869ZM17.7255 7.64516C17.7255 9.04932 18.86 10.1935 20.2577 10.1935H37.9833C42.1715 10.1935 45.5799 13.6237 45.5799 17.8387C45.5799 19.2429 46.7143 20.3871 48.1121 20.3871H78.4987C82.687 20.3871 86.0954 23.8172 86.0954 28.0323V30.5806H81.031V28.0323C81.031 26.6281 79.8965 25.4839 78.4987 25.4839H48.1121C43.9238 25.4839 40.5155 22.0537 40.5155 17.8387C40.5155 16.4345 39.381 15.2903 37.9833 15.2903H20.2577C16.0695 15.2903 12.6611 11.8602 12.6611 7.64516C12.6611 3.43013 16.0695 0 20.2577 0H48.1121V5.09677H20.2577C18.86 5.09677 17.7255 6.241 17.7255 7.64516ZM68.3699 7.64516C68.3699 9.04932 69.5043 10.1935 70.9021 10.1935H78.4987C88.2706 10.1935 96.2243 18.1955 96.2243 28.0323V30.5806H91.1598V28.0323C91.1598 21.0064 85.4801 15.2903 78.4987 15.2903H70.9021C66.7138 15.2903 63.3054 11.8602 63.3054 7.64516C63.3054 3.43013 66.7138 0 70.9021 0H98.7565V5.09677H70.9021C69.5043 5.09677 68.3699 6.241 68.3699 7.64516ZM55.7088 101.935H60.7732V107.032H55.7088V101.935ZM45.5799 101.935H50.6443V107.032H45.5799V101.935ZM65.8376 101.935H70.9021V107.032H65.8376V101.935ZM91.1598 107.032H86.0954V101.935H91.1598V107.032ZM101.289 107.032H96.2243V101.935H101.289V107.032ZM81.031 107.032H75.9665V101.935H81.031V107.032ZM45.5799 112.129H50.6443V117.226H45.5799V112.129ZM55.7088 112.129H60.7732V117.226H55.7088V112.129ZM45.5799 122.323H50.6443V127.419H45.5799V122.323ZM55.7088 122.323H60.7732V127.419H55.7088V122.323ZM55.7088 132.516H60.7732V137.613H55.7088V132.516ZM45.5799 132.516H50.6443V137.613H45.5799V132.516ZM45.5799 142.71H50.6443V147.806H45.5799V142.71ZM55.7088 142.71H60.7732V147.806H55.7088V142.71ZM91.1598 61.1613V66.2581H86.0954V61.1613H91.1598ZM86.0954 71.3548H91.1598V76.4516H86.0954V71.3548ZM86.0954 81.5484H91.1598V86.6452H86.0954V81.5484ZM131.675 86.6452H136.74V91.7419H131.675V86.6452ZM131.675 96.8387H136.74V101.935H131.675V96.8387ZM136.74 66.2581V71.3548H131.675V66.2581H136.74ZM131.675 76.4516H136.74V81.5484H131.675V76.4516Z" fill="#0770F0"/>
</svg>
