<svg width="1920" height="767" viewBox="0 0 1920 767" fill="none" xmlns="http://www.w3.org/2000/svg">
<path d="M109.833 22.1028C185.543 -8.16536 266.101 -9.88185 344.306 39.7376C399.293 74.626 414.808 131.491 419.508 175.62C423.979 217.605 420.214 268.828 419.364 304.451C418.38 345.712 420.419 375.421 428.467 397.151C434.746 414.105 444.889 427.491 470.744 437.029C507.101 450.44 527.313 444.167 546.702 431.005C573.299 412.951 597.295 382.148 633.185 336.536C665.365 295.639 707.127 243.131 763.506 208.31C824.408 170.695 898.11 155.83 987.739 179.477C1076.85 202.988 1134.21 247.632 1163.46 311.689C1189.56 368.859 1187.79 432.368 1187.14 475.486C1186.38 526.416 1186.92 554.935 1196.24 576.093C1201.77 588.645 1214.39 607.935 1269.3 620.379C1309.63 629.52 1331.68 620.203 1351.24 603.533C1376.7 581.844 1398.36 546.965 1428.05 496.866C1454.84 451.669 1488.67 393.262 1536.22 349.56C1587.68 302.269 1654.99 271.91 1743.97 279.361C1862.05 289.248 1939.67 374.417 1986.55 442.387C2010.89 477.685 2030.08 512.97 2044.15 539.059C2051.52 552.732 2056.86 562.714 2061.37 570.4C2067.19 580.31 2066.91 577.964 2061.79 573.272L1965.21 678.73C1952.34 666.94 1942.93 651.108 1938.05 642.797C1931.87 632.262 1924.94 619.287 1918.28 606.921C1904.26 580.93 1888.3 551.803 1868.83 523.576C1828.08 464.497 1783.45 426.167 1732.03 421.862C1687.01 418.092 1658.19 431.685 1632.98 454.853C1603.87 481.609 1580.47 520.167 1551.07 569.775C1524.58 614.481 1491.09 672.246 1443.99 712.376C1391.01 757.525 1323.11 779.201 1237.7 759.842C1150.61 740.105 1093.62 697.846 1065.38 633.746C1040.93 578.253 1043.54 515.017 1044.16 473.349C1044.9 423.869 1043.81 393.936 1033.38 371.083C1026.09 355.118 1009.68 333.159 951.261 317.745C899.14 303.994 865.842 313.18 838.65 329.975C806.935 349.563 779.51 381.824 745.565 424.964C715.33 463.39 676.263 515.891 627.017 549.321C570.562 587.643 502.148 601.031 421.256 571.193C354.374 546.522 314.462 501.069 294.368 446.814C276.043 397.334 275.393 343.463 276.405 301.04C277.552 252.98 280.47 220.413 277.312 190.765C274.383 163.262 267.957 160.65 267.694 160.484C235.399 139.993 204.456 138.278 162.917 154.885C116.609 173.399 62.9936 212.915 -3.28516 271.196L-97.7148 163.808C-30.494 104.699 38.8916 50.4645 109.833 22.1028Z" fill="black" fill-opacity="0.5"/>
</svg>
