<svg width="94" height="135" viewBox="0 0 94 135" fill="none" xmlns="http://www.w3.org/2000/svg">
<path d="M47.0111 117.652C47.0111 121.433 46.5964 124.473 45.767 126.771C44.9375 128.995 43.7822 130.737 42.3011 131.998C40.82 133.258 39.1019 134.073 37.1468 134.444C35.1917 134.815 33.0588 135 30.7483 135C28.023 135 25.4755 134.889 23.1056 134.666C20.7951 134.444 18.7807 133.777 17.0626 132.665C15.3445 131.553 13.9819 129.848 12.9747 127.549C12.0268 125.177 11.5528 121.878 11.5528 117.652C11.5528 113.797 11.9675 110.758 12.797 108.534C13.6264 106.236 14.7521 104.493 16.174 103.307C17.5958 102.047 19.2843 101.231 21.2394 100.861C23.1945 100.49 25.2681 100.305 27.4602 100.305C30.2447 100.305 32.8219 100.416 35.1917 100.638C37.5615 100.787 39.6054 101.417 41.3236 102.529C43.1009 103.567 44.4932 105.272 45.5004 107.644C46.5075 109.942 47.0111 113.278 47.0111 117.652ZM93.4001 31.0255C94.4666 37.7718 94.1111 44.2216 92.3337 50.3748C90.6156 56.4539 87.8903 61.7545 84.1579 66.2768C82.736 67.9819 80.9586 69.7241 78.8258 71.5033C76.7522 73.2825 74.3528 74.9876 71.6275 76.6186C68.9615 78.1755 65.9696 79.584 62.6519 80.8443C59.3934 82.0305 55.8979 82.9201 52.1654 83.5132C51.2768 83.6614 50.4473 83.8468 49.6771 84.0692C48.907 84.2916 48.2256 84.6993 47.6332 85.2924C47.0407 85.8855 46.5668 86.7751 46.2113 87.9613C45.8558 89.1475 45.6188 90.7784 45.5004 92.8542H10.3975C10.516 90.556 10.6938 88.2578 10.9307 85.9596C11.227 83.5873 11.6121 81.2521 12.086 78.9539C12.56 76.6557 13.2117 74.4316 14.0411 72.2817C14.8706 70.0577 15.937 67.9819 17.2404 66.0544C18.1883 64.6458 19.3436 63.1631 20.7062 61.6063C22.0689 60.0494 23.9055 58.5667 26.216 57.1582C28.5266 55.7496 31.4296 54.4893 34.9251 53.3773C38.4798 52.1911 42.8936 51.3386 48.1664 50.8196C49.292 50.6713 50.477 50.486 51.7211 50.2636C52.9653 50.0412 54.1205 49.6334 55.1869 49.0404C56.2534 48.3731 57.142 47.4835 57.853 46.3715C58.5639 45.1853 58.9194 43.6285 58.9194 41.701C58.9194 40.07 58.2381 38.7727 56.8754 37.8089C55.572 36.771 53.7354 36.1038 51.3656 35.8072C49.0551 35.4366 46.8037 35.2142 44.6117 35.14C42.4788 34.9918 40.3756 34.9176 38.3021 34.9176C33.207 34.9176 28.5562 35.2883 24.3498 36.0297C20.2026 36.771 16.5294 37.6606 13.3302 38.6985C10.1309 39.7364 7.40566 40.8484 5.15434 42.0346C2.90302 43.1466 1.18491 44.1104 0 44.9259V10.0082C2.72528 8.97034 5.95415 7.85832 9.6866 6.67216C13.419 5.486 17.4477 4.41104 21.7726 3.44728C26.0975 2.4094 30.6002 1.59391 35.2805 1.00083C40.0202 0.33361 44.7302 0 49.4105 0C54.6241 0 59.66 0.518948 64.5181 1.55684C69.4354 2.5206 73.8492 4.18864 77.7594 6.56096C81.7288 8.93328 85.0762 12.1211 87.8015 16.1244C90.586 20.0535 92.4522 25.0206 93.4001 31.0255Z" fill="white"/>
</svg>
